<?xml version="1.0" encoding="UTF-8"?><svg id="Logo_icons" xmlns="http://www.w3.org/2000/svg" xmlns:xlink="http://www.w3.org/1999/xlink" viewBox="0 0 532 272"><defs><style>.cls-1{fill:url(#Nepojmenovaný_přechod_2-2);}.cls-1,.cls-2,.cls-3{stroke-width:0px;}.cls-2{fill:url(#Nepojmenovaný_přechod_2);}.cls-3{fill:#1f1f1f;}</style><linearGradient id="Nepojmenovaný_přechod_2" x1="80.49" y1="167.12" x2="137.96" y2="109.23" gradientUnits="userSpaceOnUse"><stop offset="0" stop-color="#e51139"/><stop offset="1" stop-color="#f6ad12"/></linearGradient><linearGradient id="Nepojmenovaný_přechod_2-2" x1="72.53" y1="167.35" x2="135.02" y2="104.39" xlink:href="#Nepojmenovaný_přechod_2"/></defs><path class="cls-3" d="m199.72,159.4c3.37,0,6.64-.99,9.48-2.87,4.83-3.2,7.71-8.54,7.7-14.29.05-5.67-2.8-10.97-7.61-14.17-2.87-1.91-6.19-2.93-9.58-2.93-2.28,0-4.5.45-6.6,1.35-6.32,2.64-10.51,8.97-10.45,15.74-.04,6.84,4.15,13.2,10.44,15.82,2.11.89,4.33,1.35,6.61,1.35Zm-9.86-17.16c-.02-3.31,1.56-6.27,4.34-8.12,1.66-1.11,3.59-1.7,5.57-1.7,1.32,0,2.61.26,3.84.77,3.71,1.55,6.01,5.02,6.02,9.07,0,4.06-2.3,7.55-6.02,9.1-1.23.51-2.52.77-3.84.77-1.98,0-3.9-.59-5.55-1.7-2.78-1.87-4.37-4.86-4.35-8.2Z"/><path class="cls-3" d="m238.24,132.27c2.02,0,3.67-1.65,3.67-3.67v-3.6h-3.79c-6.75,0-13.06,4.18-15.7,10.4-.89,2.05-1.34,4.3-1.34,6.68v17.16h3.53c2.1,0,3.81-1.71,3.81-3.81v-13.35c0-1.35.26-2.64.76-3.82,1.5-3.58,5.1-5.99,8.94-5.99h.11Z"/><path class="cls-3" d="m262.9,158.92c2.24,0,4.44-.4,6.53-1.2,3.93-1.5,8.05-6.33,8.23-6.53l.08-.09-2.14-1.73c-.79-.64-1.79-.99-2.82-.99-1.11,0-2.16.4-2.96,1.14-2.07,1.9-4.38,2.9-6.67,2.9-1.29,0-2.61-.31-3.91-.93l-.54-.26.42-.43,17.92-18.03-.05-.08c-2.84-4.22-7.39-6.91-12.48-7.4-.54-.05-1.08-.08-1.62-.08-4.52,0-8.76,1.76-11.94,4.96-3.11,3.01-4.89,7.35-4.9,11.91,0,4.59,1.77,8.96,4.88,12,2.99,3.07,7.35,4.82,11.97,4.82Zm-7.07-23.92c1.8-1.86,4.34-2.92,6.99-2.92,1.3,0,2.56.25,3.75.74l.6.24-.46.45c-3.53,3.48-8.41,8.33-12.44,12.38l-.45.46-.24-.6c-1.49-3.69-.59-8.01,2.25-10.75Z"/><path class="cls-3" d="m299.62,125.07h-.3c-6.72,0-12.99,4.18-15.6,10.41-.89,2.05-1.34,4.3-1.34,6.67v17.15h3.46c2.1,0,3.81-1.71,3.81-3.81v-13.35c-.02-2.6,1.01-5.07,2.88-6.95,1.75-1.8,4.27-2.84,6.92-2.85h.03c2.67,0,5.22,1.04,7.01,2.86,1.87,1.87,2.89,4.34,2.87,6.94v13.34c0,2.1,1.71,3.81,3.81,3.81h3.46v-17.15c0-2.37-.45-4.62-1.34-6.67-2.66-6.23-8.96-10.41-15.66-10.41Z"/><path class="cls-3" d="m353.77,148.72c.89-2.08,1.33-4.31,1.33-6.64v-30.56h-2.72c-2.51,0-4.55,2.04-4.55,4.55v8.94h-9.81c-2.33,0-4.56.45-6.63,1.33-6.38,2.66-10.61,8.99-10.53,15.74-.02,5.74,2.86,11.08,7.69,14.28,2.84,1.89,6.13,2.89,9.5,2.89,2.28,0,4.5-.45,6.6-1.34,4.09-1.73,7.33-4.99,9.11-9.18Zm-5.93-16.02v9.39c0,1.35-.26,2.65-.77,3.86-1.48,3.6-5.08,6.03-8.96,6.03h-.09s0-.43,0-.43h0v.43c-4.06,0-7.55-2.32-9.11-6.05-1.57-3.75-.77-7.88,2.09-10.78,1.82-1.83,4.37-2.87,6.98-2.87h.04s9.39,0,9.39,0h.43v.43Z"/><path class="cls-3" d="m393.59,142.24c.05-5.67-2.8-10.97-7.61-14.17-2.87-1.91-6.19-2.93-9.58-2.93-2.28,0-4.5.45-6.6,1.35-6.32,2.64-10.51,8.97-10.45,15.74-.04,6.84,4.15,13.2,10.44,15.82,2.11.89,4.33,1.35,6.61,1.35,3.37,0,6.64-.99,9.48-2.87,4.83-3.2,7.71-8.54,7.7-14.29Zm-13.3,9.12c-1.23.51-2.52.77-3.84.77-1.98,0-3.9-.59-5.55-1.7-2.78-1.87-4.37-4.86-4.35-8.2-.02-3.31,1.56-6.27,4.34-8.12,1.66-1.11,3.59-1.7,5.57-1.7,1.32,0,2.61.26,3.84.77,3.71,1.55,6.01,5.02,6.02,9.07,0,4.06-2.3,7.55-6.02,9.1Z"/><path class="cls-3" d="m414.47,132.27h.1c2.02,0,3.67-1.65,3.67-3.67v-3.6h-3.79c-6.75,0-13.06,4.18-15.7,10.4-.89,2.05-1.34,4.3-1.34,6.68v17.16h3.53c2.1,0,3.81-1.71,3.81-3.81v-13.35c0-1.35.26-2.64.76-3.82,1.5-3.58,5.1-5.99,8.95-5.99Z"/><path class="cls-3" d="m174.33,115.93l.04-.02c.92-.45,2.17-.69,3.9-.74,1.97-.07,3.51-1.68,3.51-3.67v-3.58l-.27-.03c-.69-.07-1.4-.11-2.09-.11-7.39,0-14.09,4.12-17.05,10.51-1.36,2.93-1.55,10.48-1.56,10.8l.13,15.8c-.09,5.06-.88,10.48-6.02,12.46l-.04.02c-.47.23-1.03.4-1.7.53-1.77.33-3.06,1.91-3.06,3.75v3.84h.31c7.23-.23,13.54-4.25,16.44-10.5,1.35-2.91,1.42-10.08,1.42-10.38v-.3h0v-.43s0-8.07,0-8.07v-.42h6.19c2.02,0,3.67-1.65,3.67-3.67v-3.6h-9.86v-.44c.16-4.45.97-9.81,6.02-11.75Z"/><path class="cls-3" d="m451.99,149.94c.22-7.94-7.61-9.65-13.33-10.9-8.12-1.77-9.29-2.67-9.35-5.05-.01-.63.23-1.22.72-1.71,1.11-1.14,3.5-1.79,6.55-1.79h.1c2.34.01,5.67.36,7.51,3.23.92,1.43,2.61,2.32,4.43,2.32h2.79c-.34-6.85-6.29-11.59-14.63-11.59h-.21c-7.93.08-13.67,4.09-13.65,9.55.01,3.65,1.51,6.33,4.57,8.18,2.77,1.67,6.51,2.48,9.8,3.1,6.99,1.32,8.36,2.69,8.31,4.48-.06,2.12-3.6,3.23-7.07,3.23-.08,0-.15,0-.23,0-3.7-.06-7.25-1.29-8.84-3.07-1.03-1.15-2.44-1.81-3.87-1.82h-3.45c.28,7.25,8.21,11.17,16.07,11.29.13,0,.26,0,.38,0,7.87,0,13.25-3.8,13.41-9.45Z"/><path class="cls-2" d="m80.01,154.65v12.44h3c6.87,0,12.44-5.57,12.44-12.44,0-6.11,4.96-11.07,11.07-11.07h15.85c6.87,0,12.44-5.57,12.44-12.44v-3h-28.3c-14.65,0-26.52,11.87-26.52,26.52Z"/><path class="cls-1" d="m127.27,104.9c-4.68,0-8.47,3.79-8.47,8.47v7.07h7.56c4.68,0,8.47-3.79,8.47-8.47v-7.07h-7.56Z"/></svg>