<?xml version="1.0" encoding="UTF-8"?><svg xmlns="http://www.w3.org/2000/svg" xmlns:xlink="http://www.w3.org/1999/xlink" viewBox="0 0 294 272"><defs><style>.cls-1{fill:url(#Nepojmenovaný_přechod_2-2);}.cls-1,.cls-2,.cls-3{stroke-width:0px;}.cls-2{fill:url(#Nepojmenovaný_přechod_2);}.cls-3{fill:#1f1f1f;}</style><linearGradient id="Nepojmenovaný_přechod_2" x1="71.19" y1="223.61" x2="232.98" y2="60.64" gradientUnits="userSpaceOnUse"><stop offset="0" stop-color="#e51139"/><stop offset="1" stop-color="#f6ad12"/></linearGradient><linearGradient id="Nepojmenovaný_přechod_2-2" x1="48.78" y1="224.26" x2="224.73" y2="47.02" xlink:href="#Nepojmenovaný_přechod_2"/></defs><g id="Background"><rect class="cls-3" x="-.96" y="-.89" width="296.03" height="273.78"/></g><g id="Logo_icons"><path class="cls-2" d="m69.83,188.52v35.04h8.46c19.35,0,35.04-15.69,35.04-35.04,0-17.22,13.96-31.17,31.17-31.17h44.63c19.35,0,35.04-15.69,35.04-35.04v-8.46h-79.67c-41.24,0-74.67,33.43-74.67,74.67Z"/><path class="cls-1" d="m202.89,48.44c-13.17,0-23.84,10.68-23.84,23.84v19.89h21.28c13.17,0,23.84-10.67,23.84-23.84v-19.89h-21.28Z"/></g></svg>